<?xml version="1.0" standalone="no"?>
<!DOCTYPE svg PUBLIC "-//W3C//DTD SVG 20010904//EN"
 "http://www.w3.org/TR/2001/REC-SVG-20010904/DTD/svg10.dtd">
<svg version="1.0" xmlns="http://www.w3.org/2000/svg"
 width="512.000000pt" height="512.000000pt" viewBox="0 0 512.000000 512.000000"
 preserveAspectRatio="xMidYMid meet">
<metadata>
Created by potrace 1.14, written by Peter Selinger 2001-2017
</metadata>
<g transform="translate(0.000000,512.000000) scale(0.100000,-0.100000)"
fill="#000000" stroke="none">
<path d="M4979 3996 c-2 -2 -20 -7 -39 -10 -19 -3 -89 -17 -155 -31 -66 -14
-163 -34 -215 -45 -52 -10 -148 -30 -212 -44 -64 -14 -127 -27 -140 -30 -33
-6 -329 -67 -353 -73 -22 -5 -54 -11 -87 -17 -13 -3 -111 -23 -218 -46 -107
-23 -211 -44 -230 -47 -19 -3 -37 -7 -39 -9 -2 -2 -29 19 -60 47 -55 49 -175
134 -209 146 -13 5 -12 1 6 -23 208 -270 318 -535 290 -693 -11 -63 -63 -201
-111 -298 -73 -148 -167 -246 -309 -323 -43 -23 -78 -44 -78 -46 0 -3 25 -39
55 -80 l56 -75 29 18 c16 9 31 15 34 12 7 -7 176 -290 176 -294 0 -4 47 -75
54 -82 3 -4 153 50 201 72 17 8 51 22 78 31 26 9 47 18 47 19 0 1 -51 47 -112
101 -62 55 -124 109 -138 122 -14 12 -53 46 -87 75 -34 28 -62 56 -62 60 -1 5
16 23 36 40 20 18 54 49 75 70 30 29 42 35 56 28 9 -5 145 -90 301 -189 282
-179 285 -180 310 -164 14 9 64 44 111 78 47 33 133 95 192 136 l107 75 -97
30 c-53 17 -223 70 -377 117 -154 48 -314 98 -356 112 l-76 25 17 63 c15 52
21 82 30 144 0 4 652 -153 740 -178 19 -6 102 -26 183 -46 126 -31 151 -34
162 -23 13 14 273 417 293 455 10 20 7 20 -256 22 -772 8 -1116 13 -1121 17
-3 3 -6 13 -7 21 -2 9 -8 39 -14 66 -7 27 -11 51 -9 53 2 1 45 6 94 9 87 6
142 11 250 21 28 2 84 7 125 10 41 3 100 8 130 10 30 3 87 7 125 10 39 3 96 7
128 10 61 5 128 11 247 20 41 3 95 8 120 10 25 3 81 7 125 10 88 6 157 14 161
18 2 1 5 45 9 97 8 135 14 224 21 313 5 71 4 84 -7 73z"/>
<path d="M105 3969 c3 -13 7 -60 10 -104 2 -44 7 -132 11 -195 4 -63 7 -125 7
-137 -1 -15 5 -23 16 -24 9 0 23 -2 31 -3 13 -3 66 -7 250 -21 107 -8 210 -16
250 -20 66 -6 189 -17 235 -20 113 -8 224 -17 255 -20 19 -2 73 -6 120 -10 47
-3 103 -8 125 -10 22 -2 83 -7 135 -11 52 -3 96 -7 97 -8 2 -1 -2 -18 -7 -37
-6 -19 -13 -50 -16 -69 -3 -19 -7 -36 -8 -37 -2 -3 -514 -9 -1093 -15 -161 -1
-293 -5 -293 -8 0 -6 256 -407 292 -459 l17 -24 531 132 c293 72 536 128 541
125 5 -3 9 -15 9 -27 0 -12 9 -56 20 -97 10 -41 16 -77 12 -81 -4 -3 -41 -16
-82 -28 -41 -13 -122 -38 -180 -56 -58 -19 -217 -68 -355 -111 -137 -42 -256
-80 -263 -83 -8 -5 21 -30 80 -71 51 -35 95 -67 98 -70 3 -4 30 -23 60 -43 30
-20 83 -57 116 -82 l62 -44 108 68 c60 38 170 107 244 154 74 47 161 102 193
122 l58 37 57 -54 c31 -30 68 -62 82 -71 l25 -18 -30 -26 c-16 -14 -59 -52
-95 -84 -36 -32 -74 -66 -86 -76 -131 -114 -194 -171 -194 -176 0 -3 44 -22
98 -42 53 -21 111 -43 127 -50 62 -26 96 -38 99 -34 2 2 54 90 116 196 l114
192 29 -21 30 -21 21 28 c12 16 38 53 59 82 l38 53 -26 10 c-62 24 -171 98
-230 156 -73 73 -137 179 -193 324 -52 134 -61 177 -57 260 8 139 103 347 252
548 30 41 53 76 51 78 -11 10 -158 -93 -240 -169 -24 -22 -32 -24 -65 -17 -21
5 -51 11 -68 14 -16 3 -39 8 -50 10 -71 16 -1298 272 -1355 282 -14 3 -43 10
-65 15 -22 5 -62 12 -88 15 -47 6 -48 6 -42 -17z"/>
<path d="M2497 3742 c-26 -42 -92 -149 -147 -237 l-98 -160 292 -5 293 -5
-118 -190 c-65 -104 -122 -197 -125 -205 -4 -8 -16 -27 -26 -42 -10 -14 -18
-30 -18 -35 0 -4 132 -8 293 -8 243 1 291 3 289 14 -2 8 -18 37 -36 65 -30 46
-417 672 -441 714 -47 80 -99 163 -104 167 -4 2 -28 -31 -54 -73z"/>
<path d="M2107 3108 c-75 -123 -141 -228 -147 -235 -5 -7 -6 -14 -2 -16 17 -9
577 -1 577 8 0 14 -278 465 -286 465 -4 0 -68 -100 -142 -222z"/>
<path d="M2521 2654 c-12 -19 -21 -37 -21 -40 0 -3 -5 -10 -10 -17 -23 -26
-261 -439 -258 -446 2 -5 48 -57 103 -116 84 -90 101 -114 106 -148 6 -43 -1
-56 -51 -88 l-24 -16 89 -326 c49 -180 92 -321 96 -314 4 6 36 122 73 257 36
135 75 276 85 313 l20 68 -40 27 c-38 26 -39 29 -35 71 3 26 15 54 28 70 33
37 118 129 156 168 l32 34 -157 269 c-87 148 -161 269 -165 270 -3 0 -15 -16
-27 -36z"/>
<path d="M2066 2032 c-37 -26 -41 -34 -72 -147 -18 -66 -33 -128 -34 -137 0
-9 -4 -19 -8 -22 -9 -5 -86 -14 -197 -21 -160 -11 -230 -17 -236 -20 -3 -3
-26 -30 -50 -61 -42 -54 -43 -59 -41 -117 3 -59 6 -65 79 -167 42 -58 112
-154 155 -213 43 -60 78 -105 78 -101 0 4 -23 96 -51 203 -70 267 -69 261 -55
262 6 0 18 2 26 4 9 1 49 5 90 9 41 3 105 9 142 12 65 6 67 5 63 -16 -2 -12
-7 -50 -11 -83 -8 -72 -18 -75 106 32 125 108 115 89 85 153 l-26 56 55 155
c31 84 56 158 56 163 0 14 -86 84 -102 84 -7 -1 -30 -13 -52 -28z"/>
<path d="M2916 2018 l-46 -43 59 -160 59 -160 -28 -55 -28 -55 36 -30 c20 -17
59 -50 87 -74 27 -24 63 -55 79 -69 l29 -25 -6 34 c-4 19 -9 58 -13 88 l-6 53
83 -7 c46 -4 93 -9 103 -11 11 -2 44 -4 72 -5 29 -1 58 -5 64 -9 8 -5 2 -42
-20 -126 -17 -65 -33 -128 -35 -139 -3 -11 -15 -59 -28 -107 -13 -49 -21 -88
-18 -87 3 0 73 93 154 206 145 200 149 207 154 264 5 58 4 60 -43 124 -45 61
-50 65 -88 66 -23 0 -48 2 -57 4 -9 1 -63 6 -120 10 -128 8 -212 15 -214 18
-1 1 -20 67 -41 147 -39 144 -39 145 -79 167 -22 13 -45 23 -52 23 -6 0 -32
-19 -57 -42z"/>
</g>
</svg>
