<svg width="134" height="89" viewBox="0 0 134 89" fill="none" xmlns="http://www.w3.org/2000/svg">
<path d="M17.86 30.4L4.54 2.85H28.15L40.43 29.64L40.78 30.4H45.26L45.61 29.65L57.95 2.85H81.57L68.23 30.4H71.39L86.11 0H56.12L43.02 28.46L29.98 0H0L14.7 30.4H17.86Z" fill="white"/>
<path d="M57.3116 52.9492L43.0316 82.4592L28.7616 52.9492H25.6016L43.0316 88.9992L60.4816 52.9492H57.3116Z" fill="white"/>
<path d="M90.9909 30.4V2.78H115.421V30.4H118.201V0H88.2109V30.4H90.9909Z" fill="white"/>
<path d="M115.421 52.9492V86.2192H90.9909V52.9492H88.2109V88.9992H118.201V52.9492H115.421Z" fill="white"/>
</svg>
